<mxfile host="app.diagrams.net" modified="2023-12-17T14:51:20.300Z" agent="Mozilla/5.0 (Windows NT 10.0; Win64; x64) AppleWebKit/537.36 (KHTML, like Gecko) Chrome/120.0.0.0 Safari/537.36" etag="hdcbQwdmoKWwg5XmDg7H" version="22.1.11" type="github">
  <diagram name="第 1 页" id="e8PkdAkC_buC88wBoFo7">
    <mxGraphModel dx="1314" dy="783" grid="1" gridSize="10" guides="1" tooltips="1" connect="1" arrows="1" fold="1" page="1" pageScale="1" pageWidth="1654" pageHeight="2336" math="0" shadow="0">
      <root>
        <mxCell id="0" />
        <mxCell id="1" parent="0" />
        <mxCell id="ve32dZPm960FdzRgtReY-1" value="" style="shape=mxgraph.cisco.storage.cloud;sketch=0;html=1;pointerEvents=1;dashed=0;fillColor=#036897;strokeColor=#ffffff;strokeWidth=2;verticalLabelPosition=bottom;verticalAlign=top;align=center;outlineConnect=0;" vertex="1" parent="1">
          <mxGeometry x="900" y="30" width="400" height="140" as="geometry" />
        </mxCell>
        <mxCell id="ve32dZPm960FdzRgtReY-2" value="" style="shape=mxgraph.cisco.switches.atm_fast_gigabit_etherswitch;sketch=0;html=1;pointerEvents=1;dashed=0;fillColor=#036897;strokeColor=#ffffff;strokeWidth=2;verticalLabelPosition=bottom;verticalAlign=top;align=center;outlineConnect=0;" vertex="1" parent="1">
          <mxGeometry x="910" y="840" width="64" height="64" as="geometry" />
        </mxCell>
        <mxCell id="ve32dZPm960FdzRgtReY-3" value="" style="shape=mxgraph.cisco.switches.atm_switch;sketch=0;html=1;pointerEvents=1;dashed=0;fillColor=#036897;strokeColor=#ffffff;strokeWidth=2;verticalLabelPosition=bottom;verticalAlign=top;align=center;outlineConnect=0;" vertex="1" parent="1">
          <mxGeometry x="648" y="1050" width="54" height="56" as="geometry" />
        </mxCell>
        <mxCell id="ve32dZPm960FdzRgtReY-4" value="" style="shape=mxgraph.cisco.switches.mgx_8000_multiservice_switch;sketch=0;html=1;pointerEvents=1;dashed=0;fillColor=#036897;strokeColor=#ffffff;strokeWidth=2;verticalLabelPosition=bottom;verticalAlign=top;align=center;outlineConnect=0;" vertex="1" parent="1">
          <mxGeometry x="910" y="480" width="78" height="78" as="geometry" />
        </mxCell>
        <mxCell id="ve32dZPm960FdzRgtReY-5" value="" style="shape=mxgraph.cisco.security.firewall;sketch=0;html=1;pointerEvents=1;dashed=0;fillColor=#036897;strokeColor=#ffffff;strokeWidth=2;verticalLabelPosition=bottom;verticalAlign=top;align=center;outlineConnect=0;" vertex="1" parent="1">
          <mxGeometry x="934.5" y="640" width="29" height="67" as="geometry" />
        </mxCell>
        <mxCell id="ve32dZPm960FdzRgtReY-6" value="" style="shape=mxgraph.cisco.security.ios_firewall;sketch=0;html=1;pointerEvents=1;dashed=0;fillColor=#036897;strokeColor=#ffffff;strokeWidth=2;verticalLabelPosition=bottom;verticalAlign=top;align=center;outlineConnect=0;" vertex="1" parent="1">
          <mxGeometry x="910" y="270" width="90" height="100" as="geometry" />
        </mxCell>
        <mxCell id="ve32dZPm960FdzRgtReY-7" value="" style="shape=mxgraph.cisco.security.network_security;sketch=0;html=1;pointerEvents=1;dashed=0;fillColor=#036897;strokeColor=#ffffff;strokeWidth=2;verticalLabelPosition=bottom;verticalAlign=top;align=center;outlineConnect=0;" vertex="1" parent="1">
          <mxGeometry x="510" y="500" width="45" height="58" as="geometry" />
        </mxCell>
        <mxCell id="ve32dZPm960FdzRgtReY-8" value="" style="shape=mxgraph.cisco.security.gatekeeper;sketch=0;html=1;pointerEvents=1;dashed=0;fillColor=#036897;strokeColor=#ffffff;strokeWidth=2;verticalLabelPosition=bottom;verticalAlign=top;align=center;outlineConnect=0;" vertex="1" parent="1">
          <mxGeometry x="510" y="599" width="85" height="59" as="geometry" />
        </mxCell>
        <mxCell id="ve32dZPm960FdzRgtReY-9" value="" style="shape=mxgraph.cisco.security.guard;sketch=0;html=1;pointerEvents=1;dashed=0;fillColor=#036897;strokeColor=#ffffff;strokeWidth=2;verticalLabelPosition=bottom;verticalAlign=top;align=center;outlineConnect=0;" vertex="1" parent="1">
          <mxGeometry x="460" y="570" width="88" height="54" as="geometry" />
        </mxCell>
        <mxCell id="ve32dZPm960FdzRgtReY-11" value="" style="shape=mxgraph.cisco.security.ios_firewall;sketch=0;html=1;pointerEvents=1;dashed=0;fillColor=#036897;strokeColor=#ffffff;strokeWidth=2;verticalLabelPosition=bottom;verticalAlign=top;align=center;outlineConnect=0;" vertex="1" parent="1">
          <mxGeometry x="1200" y="270" width="90" height="100" as="geometry" />
        </mxCell>
        <mxCell id="ve32dZPm960FdzRgtReY-12" value="" style="shape=mxgraph.cisco.switches.mgx_8000_multiservice_switch;sketch=0;html=1;pointerEvents=1;dashed=0;fillColor=#036897;strokeColor=#ffffff;strokeWidth=2;verticalLabelPosition=bottom;verticalAlign=top;align=center;outlineConnect=0;" vertex="1" parent="1">
          <mxGeometry x="1180" y="480" width="78" height="78" as="geometry" />
        </mxCell>
        <mxCell id="ve32dZPm960FdzRgtReY-13" value="" style="shape=mxgraph.cisco.security.firewall;sketch=0;html=1;pointerEvents=1;dashed=0;fillColor=#036897;strokeColor=#ffffff;strokeWidth=2;verticalLabelPosition=bottom;verticalAlign=top;align=center;outlineConnect=0;" vertex="1" parent="1">
          <mxGeometry x="1210" y="623" width="29" height="67" as="geometry" />
        </mxCell>
        <mxCell id="ve32dZPm960FdzRgtReY-14" value="" style="shape=mxgraph.cisco.switches.atm_fast_gigabit_etherswitch;sketch=0;html=1;pointerEvents=1;dashed=0;fillColor=#036897;strokeColor=#ffffff;strokeWidth=2;verticalLabelPosition=bottom;verticalAlign=top;align=center;outlineConnect=0;" vertex="1" parent="1">
          <mxGeometry x="1200" y="840" width="64" height="64" as="geometry" />
        </mxCell>
        <mxCell id="ve32dZPm960FdzRgtReY-15" value="" style="shape=mxgraph.cisco.switches.atm_switch;sketch=0;html=1;pointerEvents=1;dashed=0;fillColor=#036897;strokeColor=#ffffff;strokeWidth=2;verticalLabelPosition=bottom;verticalAlign=top;align=center;outlineConnect=0;" vertex="1" parent="1">
          <mxGeometry x="780" y="1050" width="54" height="56" as="geometry" />
        </mxCell>
        <mxCell id="ve32dZPm960FdzRgtReY-16" value="" style="shape=mxgraph.cisco.switches.atm_switch;sketch=0;html=1;pointerEvents=1;dashed=0;fillColor=#036897;strokeColor=#ffffff;strokeWidth=2;verticalLabelPosition=bottom;verticalAlign=top;align=center;outlineConnect=0;" vertex="1" parent="1">
          <mxGeometry x="1020" y="1050" width="54" height="56" as="geometry" />
        </mxCell>
        <mxCell id="ve32dZPm960FdzRgtReY-17" value="" style="shape=mxgraph.cisco.switches.atm_switch;sketch=0;html=1;pointerEvents=1;dashed=0;fillColor=#036897;strokeColor=#ffffff;strokeWidth=2;verticalLabelPosition=bottom;verticalAlign=top;align=center;outlineConnect=0;" vertex="1" parent="1">
          <mxGeometry x="1192" y="1040" width="54" height="56" as="geometry" />
        </mxCell>
      </root>
    </mxGraphModel>
  </diagram>
</mxfile>
